<?xml version="1.0" standalone="no"?><svg xmlns="http://www.w3.org/2000/svg" viewBox="0 0 1440 320"><path fill="#5000ca" fill-opacity="1" d="M0,96L17.1,112C34.3,128,69,160,103,176C137.1,192,171,192,206,160C240,128,274,64,309,64C342.9,64,377,128,411,154.7C445.7,181,480,171,514,149.3C548.6,128,583,96,617,96C651.4,96,686,128,720,154.7C754.3,181,789,203,823,202.7C857.1,203,891,181,926,192C960,203,994,245,1029,234.7C1062.9,224,1097,160,1131,138.7C1165.7,117,1200,139,1234,149.3C1268.6,160,1303,160,1337,176C1371.4,192,1406,224,1423,240L1440,256L1440,320L1422.9,320C1405.7,320,1371,320,1337,320C1302.9,320,1269,320,1234,320C1200,320,1166,320,1131,320C1097.1,320,1063,320,1029,320C994.3,320,960,320,926,320C891.4,320,857,320,823,320C788.6,320,754,320,720,320C685.7,320,651,320,617,320C582.9,320,549,320,514,320C480,320,446,320,411,320C377.1,320,343,320,309,320C274.3,320,240,320,206,320C171.4,320,137,320,103,320C68.6,320,34,320,17,320L0,320Z"></path></svg>